<svg width="300" height="300" viewBox="0 0 300 300" fill="none" xmlns="http://www.w3.org/2000/svg">
<path d="M268.461 42.3628V31.5387L70.3939 31.5385C51.9261 31.5385 36.4677 44.4225 32.5166 61.6922L153.225 61.6927C166.328 61.6927 179.008 68.1278 185.784 78.5219C189.846 84.7509 186.029 92.4299 179.559 96.0961L169.378 101.866V99.3846C169.378 90.4632 162.145 83.2312 153.224 83.231L10 83.2307V70.3937C10 37.0393 37.0393 10 70.3939 10H290V42.3628C290 64.8426 277.92 85.5884 258.37 96.6845L151.339 157.432C138.53 164.702 130.615 178.294 130.615 193.022V268.24C151.208 266.104 167.264 248.696 167.264 227.539V176.892C167.264 170.59 170.652 164.775 176.136 161.667L188.803 154.491V227.539C188.803 262.035 160.838 290 126.341 290H109.077V193.022C109.077 170.543 121.157 149.796 140.707 138.7L247.738 77.9529C260.548 70.683 268.461 57.0909 268.461 42.3628Z" fill="url(#paint0_linear_615_232)"/>
<defs>
<linearGradient id="paint0_linear_615_232" x1="290" y1="10" x2="10.0002" y2="290" gradientUnits="userSpaceOnUse">
<stop stop-color="#1DC7E6"/>
<stop offset="1" stop-color="#1AE6D5"/>
</linearGradient>
</defs>
</svg>
