<svg viewBox="20 20 408 160" fill="none" xmlns="http://www.w3.org/2000/svg">
<path d="M167.692 38.493V32.3078L54.5108 32.3077C43.9578 32.3077 35.1244 39.67 32.8666 49.5384L101.843 49.5387C109.33 49.5387 116.576 53.2159 120.448 59.1554C122.769 62.7148 120.588 67.1028 116.891 69.1978L111.073 72.4949V71.0769C111.073 65.979 106.94 61.8464 101.842 61.8463L20 61.8461V54.5107C20 35.451 35.451 20 54.5108 20H180V38.493C180 51.3386 173.097 63.1934 161.926 69.534L100.765 104.247C93.4455 108.401 88.9231 116.168 88.9231 124.584V167.566C100.69 166.345 109.865 156.398 109.865 144.308V115.367C109.865 111.766 111.801 108.443 114.935 106.667L122.173 102.566V144.308C122.173 164.02 106.193 180 86.4803 180L76.6154 180V124.584C76.6154 111.739 83.5181 99.8837 94.6898 93.5431L155.85 58.8302C163.17 54.676 167.692 46.9091 167.692 38.493Z" fill="url(#paint0_linear_2377_2244)"/>
<path d="M276.63 126.86V89.4928H285.078V126.86H276.63Z" fill="#7C7C7C"/>
<path d="M280.891 83.8692C279.421 83.8692 278.173 83.3513 277.144 82.3154C276.116 81.2794 275.601 79.9969 275.601 78.4677C275.601 77.0371 276.116 75.8039 277.144 74.7679C278.173 73.6827 279.446 73.1401 280.964 73.1401C282.385 73.1401 283.609 73.6827 284.637 74.7679C285.715 75.8039 286.254 77.0618 286.254 78.5417C286.254 80.0215 285.715 81.2794 284.637 82.3154C283.609 83.3513 282.36 83.8692 280.891 83.8692Z" fill="#7C7C7C"/>
<path d="M375.915 89.4928V126.86H384.363V89.4928H375.915Z" fill="#7C7C7C"/>
<path d="M376.429 82.3154C377.457 83.3513 378.706 83.8692 380.176 83.8692C381.645 83.8692 382.894 83.3513 383.922 82.3154C385 81.2794 385.539 80.0215 385.539 78.5417C385.539 77.0618 385 75.8039 383.922 74.7679C382.894 73.6827 381.669 73.1401 380.249 73.1401C378.731 73.1401 377.457 73.6827 376.429 74.7679C375.4 75.8039 374.886 77.0371 374.886 78.4677C374.886 79.9969 375.4 81.2794 376.429 82.3154Z" fill="#7C7C7C"/>
<path d="M393.178 126.86V89.4927H401.112V94.8294C401.496 94.3032 401.913 93.8069 402.361 93.3405C403.83 91.7619 405.544 90.5533 407.503 89.7147C409.462 88.8268 411.593 88.3828 413.895 88.3828C416.539 88.3828 418.915 88.9748 421.021 90.1587C423.176 91.2933 424.866 92.9951 426.09 95.2643C427.363 97.4841 428 100.271 428 103.626L427.999 116.58C427.999 119.953 426.199 123.065 423.285 124.728L419.551 126.86L419.552 106.215C419.552 103.848 419.233 101.924 418.596 100.444C417.96 98.964 417.029 97.8788 415.805 97.1882C414.629 96.4975 413.258 96.1522 411.691 96.1522C410.222 96.1522 408.703 96.5222 407.136 97.2622C405.618 98.0021 404.32 99.2353 403.242 100.962C402.165 102.688 401.626 105.032 401.626 107.991V126.86H393.178Z" fill="#7C7C7C"/>
<path d="M327.987 126.86L327.987 103.626C327.987 100.271 327.351 97.4841 326.077 95.2643C324.853 92.9951 323.163 91.2933 321.008 90.1587C318.902 88.9748 316.527 88.3828 313.882 88.3828C311.58 88.3828 309.45 88.8268 307.491 89.7147C305.532 90.5533 303.818 91.7619 302.348 93.3405C301.9 93.8069 301.484 94.3032 301.099 94.8294V89.4927H293.165V126.86H301.614V107.991C301.614 105.032 302.152 102.688 303.23 100.962C304.307 99.2353 305.605 98.0021 307.123 97.2622C308.691 96.5222 310.209 96.1522 311.678 96.1522C313.246 96.1522 314.617 96.4975 315.792 97.1882C317.017 97.8788 317.947 98.964 318.584 100.444C319.221 101.924 319.539 103.848 319.539 106.215L319.538 126.86L327.987 126.86Z" fill="#7C7C7C"/>
<path d="M218.219 126.86C214.595 126.86 211.705 125.725 209.55 123.456C207.395 121.138 206.318 118.03 206.318 114.133V97.1142H200V89.4928H206.318V83.417C206.318 80.0417 208.121 76.9275 211.038 75.2652L214.766 73.1401V89.4928H224.831V97.1142H214.766V113.245C214.766 115.218 215.256 116.698 216.236 117.685C217.264 118.671 218.734 119.165 220.644 119.165H224.831V126.86H218.219Z" fill="#7C7C7C"/>
<path d="M233.408 126.86V83.4202C233.408 80.047 235.208 76.9344 238.122 75.2714L241.856 73.1401V94.1662C242.091 93.8812 242.335 93.6059 242.591 93.3403C244.06 91.7617 245.774 90.5532 247.733 89.7146C249.692 88.8266 251.823 88.3827 254.125 88.3827C256.769 88.3827 259.145 88.9746 261.251 90.1585C263.406 91.2931 265.095 92.995 266.32 95.2641C267.593 97.484 268.23 100.271 268.23 103.625V126.86H259.781V106.215C259.781 103.847 259.463 101.924 258.826 100.444C258.19 98.9638 257.259 97.8786 256.035 97.188C254.859 96.4974 253.488 96.1521 251.921 96.1521C250.451 96.1521 248.933 96.522 247.366 97.262C245.848 98.0019 244.55 99.2352 243.472 100.962C242.395 102.688 241.856 105.031 241.856 107.991V126.86H233.408Z" fill="#7C7C7C"/>
<path d="M334.5 83.4202C334.5 80.047 336.301 76.9344 339.214 75.2714L342.948 73.1401V105.44L358.302 89.4928H369.304L354.216 105.111L369.293 126.86H359.477L348.623 110.901L342.948 116.774V126.86H334.5V83.4202Z" fill="#7C7C7C"/>
<defs>
<linearGradient id="paint0_linear_2377_2244" x1="180" y1="20" x2="20.0001" y2="180" gradientUnits="userSpaceOnUse">
<stop stop-color="#1DC7E6"/>
<stop offset="1" stop-color="#1AE6D5"/>
</linearGradient>
</defs>
</svg>
