<svg viewBox="20 20 160 160" fill="none" xmlns="http://www.w3.org/2000/svg">
<path d="M167.692 38.493V32.3078L54.5108 32.3077C43.9578 32.3077 35.1244 39.67 32.8666 49.5384L101.843 49.5387C109.33 49.5387 116.576 53.2159 120.448 59.1554C122.769 62.7148 120.588 67.1028 116.891 69.1978L111.073 72.4949V71.0769C111.073 65.979 106.94 61.8464 101.842 61.8463L20 61.8461V54.5107C20 35.451 35.451 20 54.5108 20H180V38.493C180 51.3386 173.097 63.1934 161.926 69.534L100.765 104.247C93.4455 108.401 88.9231 116.168 88.9231 124.584V167.566C100.69 166.345 109.865 156.398 109.865 144.308V115.367C109.865 111.766 111.801 108.443 114.935 106.667L122.173 102.566V144.308C122.173 164.02 106.193 180 86.4803 180L76.6154 180V124.584C76.6154 111.739 83.5181 99.8837 94.6898 93.5431L155.85 58.8302C163.17 54.676 167.692 46.9091 167.692 38.493Z" fill="url(#paint0_linear_2370_163)"/>
<defs>
<linearGradient id="paint0_linear_2370_163" x1="180" y1="20" x2="20.0001" y2="180" gradientUnits="userSpaceOnUse">
<stop stop-color="#1DC7E6"/>
<stop offset="1" stop-color="#1AE6D5"/>
</linearGradient>
</defs>
</svg>
