<svg width="34" height="35" viewBox="0 0 34 35" fill="none" xmlns="http://www.w3.org/2000/svg">
<path d="M2.83334 8.62389C4.30001 6.32389 6.30001 4.40723 8.68334 3.07389C12.1333 4.20723 15.8833 6.40723 18.7667 9.69056C13.9333 11.4572 8.26667 11.4739 2.83334 8.62389ZM7.71667 31.4906C3.20001 28.5072 0.216675 23.3906 0.216675 17.5739C0.216675 15.4739 0.600008 13.4572 1.33334 11.6072C4.85001 13.4406 8.45001 14.2572 11.9333 14.2572C15.0667 14.2572 18.0833 13.6072 20.8333 12.4739C21.45 13.4739 21.9833 14.5739 22.4167 15.7406C20.8333 16.3072 19.2667 17.0572 17.7833 17.9739C12.6667 21.1739 9.06667 26.0072 7.71667 31.4906ZM13.1833 1.32389C14.3667 1.05723 15.6167 0.907227 16.8833 0.907227C20.6833 0.907227 24.1667 2.17389 26.9667 4.30723C25.55 5.84056 23.8333 7.19056 21.9167 8.25723C19.45 5.19056 16.3167 2.89056 13.1833 1.32389ZM23.5667 20.7239C24.3333 28.4906 20.9 33.2739 20.4833 33.8406C20.4667 33.8406 20.4667 33.8572 20.4667 33.8572C19.3167 34.1072 18.1167 34.2406 16.8833 34.2406C14.7167 34.2406 12.6667 33.8239 10.7667 33.0739C11.75 28.1072 14.9167 23.6739 19.5333 20.8072C20.75 20.0406 22.0167 19.4239 23.3167 18.9572C23.4167 19.5239 23.5 20.1239 23.5667 20.7239ZM33.5333 18.1406C33.3333 24.0406 30.0833 29.1739 25.2833 31.9739C26.3833 29.3072 27.3833 25.3739 26.8833 20.3906C26.8 19.5906 26.6833 18.8072 26.5333 18.0572C28.9333 17.5906 31.3167 17.6072 33.5333 18.1406ZM25.65 14.8406C25.15 13.4739 24.55 12.1906 23.8333 11.0072C25.95 9.79056 27.85 8.29056 29.4 6.57389C31.3833 8.82389 32.7667 11.6072 33.3 14.6906C30.8333 14.2572 28.2333 14.3072 25.65 14.8406Z" fill="white"/>
</svg>
