<svg width="30" height="31" viewBox="0 0 30 31" fill="none" xmlns="http://www.w3.org/2000/svg">
<path d="M26.6667 0.574219H3.33333C1.49167 0.574219 0 2.06589 0 3.90755V27.2409C0 29.0826 1.49167 30.5742 3.33333 30.5742H16.035V18.9726H12.13V14.4309H16.035V11.0892C16.035 7.21589 18.4033 5.10422 21.86 5.10422C23.025 5.10089 24.1883 5.16089 25.3467 5.27922V9.32922H22.9667C21.0833 9.32922 20.7167 10.2192 20.7167 11.5326V14.4242H25.2167L24.6317 18.9659H20.69V30.5742H26.6667C28.5083 30.5742 30 29.0826 30 27.2409V3.90755C30 2.06589 28.5083 0.574219 26.6667 0.574219Z" fill="white"/>
</svg>
