<svg width="30" height="31" viewBox="0 0 30 31" fill="none" xmlns="http://www.w3.org/2000/svg">
<path d="M26.6667 0.574219H3.33333C1.49167 0.574219 0 2.06589 0 3.90755V27.2409C0 29.0826 1.49167 30.5742 3.33333 30.5742H26.6667C28.5083 30.5742 30 29.0826 30 27.2409V3.90755C30 2.06589 28.5083 0.574219 26.6667 0.574219ZM10 23.9076H5.795V12.2409H10V23.9076ZM7.82333 10.1026C6.53833 10.1026 5.68 9.24589 5.68 8.10255C5.68 6.95922 6.53667 6.10255 7.965 6.10255C9.25 6.10255 10.1083 6.95922 10.1083 8.10255C10.1083 9.24589 9.25167 10.1026 7.82333 10.1026ZM25 23.9076H20.93V17.5309C20.93 15.7676 19.845 15.3609 19.4383 15.3609C19.0317 15.3609 17.675 15.6326 17.675 17.5309C17.675 17.8026 17.675 23.9076 17.675 23.9076H13.47V12.2409H17.675V13.8692C18.2167 12.9192 19.3017 12.2409 21.3367 12.2409C23.3717 12.2409 25 13.8692 25 17.5309V23.9076Z" fill="white"/>
</svg>
