<svg width="30" height="31" viewBox="0 0 30 31" fill="none" xmlns="http://www.w3.org/2000/svg">
<path d="M8.33333 0.574219C3.73167 0.574219 0 4.30589 0 8.90755V22.2409C0 26.8426 3.73167 30.5742 8.33333 30.5742H21.6667C26.2683 30.5742 30 26.8426 30 22.2409V8.90755C30 4.30589 26.2683 0.574219 21.6667 0.574219H8.33333ZM25 3.90755C25.92 3.90755 26.6667 4.65422 26.6667 5.57422C26.6667 6.49422 25.92 7.24089 25 7.24089C24.08 7.24089 23.3333 6.49422 23.3333 5.57422C23.3333 4.65422 24.08 3.90755 25 3.90755ZM15 7.24089C19.6017 7.24089 23.3333 10.9726 23.3333 15.5742C23.3333 20.1759 19.6017 23.9076 15 23.9076C10.3983 23.9076 6.66667 20.1759 6.66667 15.5742C6.66667 10.9726 10.3983 7.24089 15 7.24089ZM15 10.5742C13.6739 10.5742 12.4021 11.101 11.4645 12.0387C10.5268 12.9764 10 14.2481 10 15.5742C10 16.9003 10.5268 18.1721 11.4645 19.1098C12.4021 20.0474 13.6739 20.5742 15 20.5742C16.3261 20.5742 17.5979 20.0474 18.5355 19.1098C19.4732 18.1721 20 16.9003 20 15.5742C20 14.2481 19.4732 12.9764 18.5355 12.0387C17.5979 11.101 16.3261 10.5742 15 10.5742Z" fill="white"/>
</svg>
