<svg width="60" height="60" viewBox="0 0 60 60" fill="none" xmlns="http://www.w3.org/2000/svg">
<path fill-rule="evenodd" clip-rule="evenodd" d="M19.4309 27.4603H22.1509L23.0415 24.7227H27.3763L28.2652 27.4603H30.9853L26.8465 15.4545H23.5754L19.4309 27.4603ZM26.733 22.7412L25.2579 18.198H25.1641L23.6861 22.7412H26.733Z" fill="white"/>
<path fill-rule="evenodd" clip-rule="evenodd" d="M33.4151 27.3313C33.8645 27.5306 34.3765 27.6303 34.951 27.6303C35.3965 27.6303 35.7893 27.5717 36.1293 27.4544C36.4693 27.3333 36.7604 27.1672 37.0027 26.9562C37.245 26.7412 37.4385 26.493 37.5831 26.2117H37.6534V27.4603H40.0218V21.3871C40.0218 20.8517 39.9182 20.3925 39.7111 20.0095C39.5039 19.6226 39.2206 19.306 38.8611 19.0598C38.5054 18.8136 38.097 18.6318 37.6359 18.5146C37.1786 18.3974 36.6999 18.3387 36.1996 18.3387C35.4805 18.3387 34.8474 18.4482 34.3003 18.667C33.757 18.882 33.3135 19.1907 32.9695 19.5932C32.6256 19.9919 32.3951 20.4648 32.2778 21.0119L34.5875 21.1995C34.6735 20.9025 34.8494 20.6562 35.1151 20.4608C35.3809 20.2615 35.7385 20.1619 36.1879 20.1619C36.6139 20.1619 36.9422 20.2635 37.1727 20.4667C37.4072 20.6699 37.5245 20.9572 37.5245 21.3284V21.3636C37.5245 21.5551 37.4522 21.6997 37.3076 21.7974C37.163 21.8951 36.9304 21.9694 36.61 22.0202C36.2895 22.0671 35.8674 22.1179 35.3437 22.1726C34.8982 22.2156 34.4722 22.2898 34.0658 22.3954C33.6632 22.5009 33.3037 22.6572 32.9871 22.8643C32.6706 23.0715 32.4205 23.345 32.2368 23.6851C32.0531 24.0251 31.9612 24.4452 31.9612 24.9454C31.9612 25.5395 32.0902 26.0358 32.3482 26.4344C32.61 26.8291 32.9656 27.1281 33.4151 27.3313ZM36.6393 25.6899C36.3579 25.8345 36.0335 25.9068 35.6662 25.9068C35.2832 25.9068 34.9666 25.8189 34.7165 25.643C34.4703 25.4632 34.3472 25.2034 34.3472 24.8634C34.3472 24.6289 34.4077 24.4335 34.5289 24.2771C34.65 24.1169 34.82 23.9899 35.0389 23.8961C35.2578 23.8023 35.5137 23.7339 35.8068 23.6909C35.9436 23.6714 36.096 23.6499 36.2641 23.6264C36.4321 23.5991 36.6002 23.5698 36.7682 23.5385C36.9363 23.5033 37.0868 23.4662 37.2196 23.4271C37.3564 23.3841 37.4639 23.3372 37.5421 23.2864V24.242C37.5421 24.5585 37.4619 24.8419 37.3017 25.092C37.1415 25.3421 36.9207 25.5414 36.6393 25.6899Z" fill="white"/>
<path d="M16.734 33.4431C16.734 32.3912 17.5868 31.5384 18.6388 31.5384H22.6154C23.6674 31.5384 24.5202 32.3912 24.5202 33.4431V37.4198C24.5202 38.4717 23.6674 39.3245 22.6154 39.3245H18.6388C17.5868 39.3245 16.734 38.4717 16.734 37.4198V33.4431Z" fill="white"/>
<path fill-rule="evenodd" clip-rule="evenodd" d="M28.0122 31.5384C26.9602 31.5384 26.1075 32.3912 26.1075 33.4431V37.4198C26.1075 38.4717 26.9602 39.3245 28.0122 39.3245H31.9888C33.0408 39.3245 33.8936 38.4717 33.8936 37.4198V33.4431C33.8936 32.3912 33.0408 31.5384 31.9888 31.5384H28.0122ZM31.9888 33.1257H28.0122C27.8369 33.1257 27.6948 33.2678 27.6948 33.4431V37.4198C27.6948 37.5951 27.8369 37.7372 28.0122 37.7372H31.9888C32.1642 37.7372 32.3063 37.5951 32.3063 37.4198V33.4431C32.3063 33.2678 32.1642 33.1257 31.9888 33.1257Z" fill="white"/>
<path fill-rule="evenodd" clip-rule="evenodd" d="M35.4809 33.4431C35.4809 32.3912 36.3337 31.5384 37.3857 31.5384H41.3623C42.4143 31.5384 43.2671 32.3912 43.2671 33.4431V37.4198C43.2671 38.4717 42.4143 39.3245 41.3623 39.3245H37.3857C36.3337 39.3245 35.4809 38.4717 35.4809 37.4198V33.4431ZM37.3857 33.1257H41.3623C41.5376 33.1257 41.6798 33.2678 41.6798 33.4431V37.4198C41.6798 37.5951 41.5376 37.7372 41.3623 37.7372H37.3857C37.2103 37.7372 37.0682 37.5951 37.0682 37.4198V33.4431C37.0682 33.2678 37.2103 33.1257 37.3857 33.1257Z" fill="white"/>
<path fill-rule="evenodd" clip-rule="evenodd" d="M16.6596 7.15027C13.5261 7.15027 10.9453 9.7311 10.9453 12.8646V47.1503C10.9453 50.2837 13.5261 52.8646 16.6596 52.8646H49.0406V49.055H16.6596C15.5873 49.055 14.7548 48.2225 14.7548 47.1503C14.7548 46.078 15.5873 45.2455 16.6596 45.2455H49.0406V7.15027H16.6596ZM16.6596 10.9598H45.231V41.436H16.6596C15.9904 41.436 15.3539 41.5774 14.7548 41.7931V12.8646C14.7548 11.7923 15.5873 10.9598 16.6596 10.9598Z" fill="white"/>
</svg>
