<svg width="60" height="60" viewBox="0 0 60 60" fill="none" xmlns="http://www.w3.org/2000/svg">
<path d="M16.6664 7.14288C13.5266 7.14288 10.9521 9.71729 10.9521 12.8572V47.1429C10.9521 50.2828 13.5266 52.8572 16.6664 52.8572H43.3331C46.473 52.8572 49.0474 50.2828 49.0474 47.1429V19.6875L36.5027 7.14288H16.6664ZM16.6664 10.9524H33.8093V22.381H45.2379V47.1429C45.2379 48.2143 44.4045 49.0476 43.3331 49.0476H16.6664C15.595 49.0476 14.7617 48.2143 14.7617 47.1429V12.8572C14.7617 11.7857 15.595 10.9524 16.6664 10.9524ZM37.6188 13.6459L42.5444 18.5715H37.6188V13.6459ZM22.3807 30V33.8096H37.6188V30H22.3807ZM22.3807 37.6191V41.4286H33.8093V37.6191H22.3807Z" fill="white"/>
</svg>
