<svg width="60" height="60" viewBox="0 0 60 60" fill="none" xmlns="http://www.w3.org/2000/svg">
<path d="M7.14251 7.14288C4.00906 7.14288 1.42822 9.72372 1.42822 12.8572V39.5238C1.42822 42.6573 4.00906 45.2381 7.14251 45.2381H52.8568C55.9902 45.2381 58.5711 42.6573 58.5711 39.5238V12.8572C58.5711 9.72372 55.9902 7.14288 52.8568 7.14288H7.14251ZM7.14251 10.9524H52.8568C53.9291 10.9524 54.7616 11.7849 54.7616 12.8572V39.5238C54.7616 40.5961 53.9291 41.4286 52.8568 41.4286H7.14251C6.07025 41.4286 5.23775 40.5961 5.23775 39.5238V12.8572C5.23775 11.7849 6.07025 10.9524 7.14251 10.9524ZM22.2467 15.4018C21.7651 15.4358 21.3144 15.6514 20.9856 16.005C20.6569 16.3586 20.4747 16.8238 20.4758 17.3066V35.0744C20.4755 35.409 20.5633 35.7377 20.7303 36.0275C20.8973 36.3173 21.1378 36.5581 21.4274 36.7255C21.717 36.8929 22.0456 36.9811 22.3801 36.9813C22.7146 36.9814 23.0433 36.8934 23.333 36.7262L38.5711 27.9093C38.8589 27.7427 39.0981 27.5036 39.2649 27.2159C39.4317 26.9281 39.5202 26.6017 39.5217 26.2692C39.5232 25.9366 39.4377 25.6094 39.2735 25.3202C39.1093 25.031 38.8723 24.7898 38.586 24.6206L23.3479 15.6622C23.0157 15.4659 22.6316 15.3751 22.2467 15.4018ZM24.2854 20.6325L33.8389 26.25L24.2854 31.7783V20.6325ZM16.6663 49.0476V52.8572H43.333V49.0476H16.6663Z" fill="white"/>
</svg>
