<svg width="60" height="60" viewBox="0 0 60 60" fill="none" xmlns="http://www.w3.org/2000/svg">
<path d="M14.7616 9.04761C14.2564 9.04766 13.772 9.24835 13.4148 9.60556C13.0576 9.96276 12.8569 10.4472 12.8568 10.9524V16.6667H7.14255C6.6374 16.6667 6.15294 16.8674 5.79574 17.2246C5.43854 17.5818 5.23784 18.0663 5.23779 18.5714V49.0476C5.23784 49.5528 5.43854 50.0372 5.79574 50.3944C6.15294 50.7516 6.6374 50.9523 7.14255 50.9524H45.2378C45.743 50.9523 46.2274 50.7516 46.5846 50.3944C46.9418 50.0372 47.1425 49.5528 47.1426 49.0476V43.3333H52.8568C53.362 43.3333 53.8465 43.1326 54.2037 42.7754C54.5609 42.4182 54.7616 41.9337 54.7616 41.4286V10.9524C54.7616 10.4472 54.5609 9.96276 54.2037 9.60556C53.8465 9.24835 53.362 9.04766 52.8568 9.04761H14.7616ZM16.6664 12.8571H50.9521V39.5238H47.1426V18.5714C47.1425 18.0663 46.9418 17.5818 46.5846 17.2246C46.2274 16.8674 45.743 16.6667 45.2378 16.6667H16.6664V12.8571ZM9.04732 20.4762H43.333V47.1428H9.04732V20.4762ZM26.1679 24.2857C25.6666 24.2916 25.1878 24.4949 24.8354 24.8515C24.4831 25.208 24.2854 25.6891 24.2854 26.1905V32.2545C23.6872 32.0417 23.0516 31.9048 22.3807 31.9048C19.2264 31.9048 16.6664 34.4648 16.6664 37.619C16.6664 40.7733 19.2264 43.3333 22.3807 43.3333C25.5349 43.3333 28.0949 40.7733 28.0949 37.619V29.3527L33.3926 32.1577L35.1783 28.7946L27.083 24.5089C26.8015 24.3591 26.4868 24.2823 26.1679 24.2857Z" fill="white"/>
</svg>
