<svg width="60" height="60" viewBox="0 0 60 60" fill="none" xmlns="http://www.w3.org/2000/svg">
<path fill-rule="evenodd" clip-rule="evenodd" d="M15.7159 7.14502C11.8816 7.14502 8.73242 10.2942 8.73242 14.1285V45.8715C8.73242 49.7058 11.8816 52.855 15.7159 52.855H44.9195C48.7538 52.855 51.903 49.7058 51.903 45.8715V14.1285C51.903 10.2942 48.7538 7.14502 44.9195 7.14502H15.7159ZM15.7159 10.9542H30.4131V33.0954L12.5416 33.0954V14.1285C12.5416 12.3531 13.9405 10.9542 15.7159 10.9542ZM12.5416 36.9046H30.4131V49.0459H15.7159C13.9405 49.0459 12.5416 47.6469 12.5416 45.8715V36.9046ZM34.2223 10.9542H44.9195C46.6949 10.9542 48.0938 12.3531 48.0938 14.1285V22.0954L34.2223 22.0954V10.9542ZM34.2223 25.9046V49.0459H44.9195C46.6949 49.0459 48.0938 47.6469 48.0938 45.8715V25.9046H34.2223Z" fill="white"/>
</svg>
