<svg width="60" height="60" viewBox="0 0 60 60" fill="none" xmlns="http://www.w3.org/2000/svg">
<path d="M9.04778 7.14288C5.91433 7.14288 3.3335 9.72372 3.3335 12.8572V47.1429C3.3335 50.2763 5.91433 52.8572 9.04778 52.8572H50.9525C54.086 52.8572 56.6668 50.2763 56.6668 47.1429V12.8572C56.6668 9.72372 54.086 7.14288 50.9525 7.14288H9.04778ZM9.04778 10.9524H50.9525C52.0248 10.9524 52.8573 11.7849 52.8573 12.8572V14.7619H7.14302V12.8572C7.14302 11.7849 7.97552 10.9524 9.04778 10.9524ZM7.14302 18.5715H52.8573V47.1429C52.8573 48.2151 52.0248 49.0476 50.9525 49.0476H9.04778C7.97552 49.0476 7.14302 48.2151 7.14302 47.1429V18.5715ZM12.8573 26.1905C12.3521 26.1906 11.8677 26.3912 11.5105 26.7485C11.1533 27.1057 10.9526 27.5901 10.9525 28.0953V43.3334C10.9526 43.8385 11.1533 44.323 11.5105 44.6802C11.8677 45.0374 12.3521 45.2381 12.8573 45.2381H24.2859C24.791 45.2381 25.2755 45.0374 25.6327 44.6802C25.9899 44.323 26.1906 43.8385 26.1906 43.3334V28.0953C26.1906 27.5901 25.9899 27.1057 25.6327 26.7485C25.2755 26.3912 24.791 26.1906 24.2859 26.1905H12.8573ZM30.0002 26.1905V30H49.0478V26.1905H30.0002ZM14.7621 30H22.3811V41.4286H14.7621V30ZM30.0002 33.8096V37.6191H49.0478V33.8096H30.0002ZM30.0002 41.4286V45.2381H49.0478V41.4286H30.0002Z" fill="white"/>
</svg>
